<svg clip-rule="evenodd" stroke-linecap="round" stroke-linejoin="round" stroke-miterlimit="10" width="273.333" height="328" viewBox="0 0 273.333 328" xmlns="http://www.w3.org/2000/svg"><g fill-rule="evenodd"><path d="m269.403 1.32534h-264.56655c-2.08749 0-3.7802 1.692-3.7802 3.77867v277.32899c0 13.568 10.99945 24.567 24.56725 24.567h90.0505l18.774 18.773c1.475 1.477 3.868 1.477 5.344.001l18.773-18.774h90.051c13.568 0 24.567-10.999 24.567-24.567v-277.32898c0-2.08667-1.692-3.77867-3.78-3.77867" fill="#e31b22"/><path d="m67.6437 240.047c5.3642 5.365 5.3647 14.096 0 19.46-5.3645 5.365-14.0953 5.365-19.4598 0-5.3651-5.364-5.3651-14.095 0-19.46 5.3645-5.364 14.0953-5.364 19.4598 0zm158.3243-.052c5.365 5.364 5.365 14.095 0 19.46-5.364 5.365-14.095 5.365-19.46 0-5.364-5.365-5.364-14.096 0-19.46 5.365-5.365 14.096-5.364 19.46 0zm-119.707-179.4163-4.293 4.2947c-17.7831-14.06-42.9429-14.3814-61.056-.9467h-9.3923c-.5962 0-1.0796.4827-1.0796 1.08v9.392c-13.4338 18.1133-13.113 43.2723.9463 61.0563l-4.2932 4.293c-.8229.823-.4468 2.228.6771 2.528l24.2021 6.485c.562.151 1.076-.364.926-.925l-6.4853-24.201c-.3006-1.126-1.7063-1.502-2.5287-.679l-3.7672 3.768c-8.0765-11.057-9.4396-25.52-4.0839-37.7266 1.5896-3.6214 6.3724-4.4507 9.1683-1.6534l83.2354 83.235-56.9823 56.994c-10.0104-6.104-23.2839-4.838-31.9339 3.812-10.5771 10.577-10.1224 28.072 1.3636 38.056 9.5812 8.327 24.0577 8.442 33.7599.256 10.1302-8.548 11.95-22.84 5.4734-33.461l52.2773-52.271v-26.738l-78.5377-78.539c-2.7969-2.796-1.9672-7.5787 1.6547-9.168 12.2052-5.356 26.6683-3.9933 37.726 4.084l-3.7683 3.7667c-.8228.8226-.4462 2.228.6782 2.5293l24.2011 6.4853c.563.1494 1.076-.364.926-.9266l-6.485-24.2027c-.3-1.1227-1.706-1.5-2.529-.6773zm35.583 123.4063 38.579 38.579-16.483 16.483c-.517.518-.517 1.355 0 1.872l6.477 6.477c.516.517 1.355.517 1.871 0l16.484-16.483 5.263 5.27c-6.106 10.011-4.839 23.285 3.81 31.935 10.59 10.588 28.108 10.122 38.087-1.399 8.471-9.779 8.372-24.56-.217-34.236-8.592-9.679-22.579-11.328-33.018-4.962l-5.27-5.263 16.482-16.483c.518-.517.518-1.355 0-1.871l-6.477-6.478c-.516-.517-1.355-.516-1.871 0l-16.484 16.484-43.312-43.313 63.486-63.478c6.945-6.944 11.372-6.2 13.818-3.752 2.335 2.334 3.454 6.954-3.546 13.954l-2.715-2.7c-.384-.382-1.036-.206-1.176.316l-5.168 19.287c-.141.524.339 1.003.861.863l19.287-5.168c.524-.142.699-.795.316-1.179l-2.751-2.751c5.176-5.122 8.215-11.694 8.419-18.136 6.62 7.38 6.392 18.768-.684 25.872l-2.685-2.686c-.384-.384-1.038-.208-1.179.314l-5.168 19.288c-.14.523.339 1.003.863.862l19.286-5.168c.524-.14.699-.795.316-1.178l-2.769-2.769c18.977-19.027 6.681-53.0267-22.875-53.028-2.417 0-3.374-.9413-3.374-3.3613 0-29.5814-34.007-41.86-53.027-22.8867l-2.771-2.7707c-.382-.3826-1.037-.2066-1.177.3147l-5.168 19.2893c-.14.5227.339 1.0014.863.8614l19.286-5.168c.524-.14.699-.7947.315-1.1774l-2.685-2.6866c7.104-7.076 18.49-7.3027 25.87-.6827-6.44.2027-13.013 3.2427-18.136 8.4173l-2.75-2.7506c-.383-.3827-1.038-.2067-1.178.316l-5.168 19.2866c-.14.524.339 1.0027.862.8627l19.288-5.168c.522-.14.697-.7933.316-1.1773l-2.702-2.7147c7.002-7 11.62-5.8813 13.956-3.5453 2.447 2.4466 3.191 6.872-3.753 13.8173l-58.724 58.735z" fill="#fff"/><path d="m136.545 25.544h1.138l3.186 3.1867-3.128 3.128c-.344.344-.9.344-1.244.0013l-3.133-3.1346zm11.83 23.0147c4.946 1.22 10.386-.088 14.252-3.9533 5.88-5.88 5.88-15.412 0-21.2907l-11.034 11.0333h-3.817l-4.383 4.3867-1.222-1.2227c-.48-.48-.48-1.26 0-1.74l3.665-3.6653c.329-.3307.776-.5147 1.244-.5147h2.128l1.115 1.1134v-2.8574c0-.4666-.186-.9133-.516-1.2426l-1.536-1.5374h-.006c.62-.7466 1.004-1.6493 1.004-2.4346 0-1.6-1.564-2.1134-3.557-2.1627v-.0507c.233-.1226.399-.3613.399-.644 0-.4053-.33-.7346-.734-.7346-.406 0-.734.3293-.734.7346 0 .2827.164.5214.398.644v.0507c-1.992.0493-3.557.5627-3.557 2.1627 0 .74.339 1.5853.896 2.3066h-.556l-2.139-2.0946.564-.6014c.738-.848 1.2-1.896 1.2-2.804 0-1.7786-1.741-2.3493-3.957-2.404v-.0573c.261-.136.444-.4.444-.7147 0-.452-.365-.8173-.816-.8173-.452 0-.817.3653-.817.8173 0 .3134.184.5787.444.7147v.0573c-2.215.0547-3.957.6254-3.957 2.404 0 .908.462 1.956 1.199 2.8054l.52.6-2.094 2.0946h-.556c.558-.7213.896-1.5666.896-2.3066.001-1.6-1.564-2.1134-3.557-2.1627v-.0507c.234-.1226.398-.3613.398-.644 0-.4053-.328-.7346-.734-.7346-.405 0-.734.3293-.734.7346 0 .2827.165.5214.399.644v.0507c-1.993.0493-3.558.5627-3.558 2.1627 0 .7853.385 1.688 1.004 2.4346l-1.541 1.5374c-.33.3293-.515.776-.515 1.2426v2.8574l1.114-1.1134h2.128c.467 0 .914.184 1.244.5147l3.665 3.6653c.481.48.481 1.26 0 1.74l-1.222 1.2227-4.382-4.3867h-3.818l-11.035-11.0346c-5.878 5.88-5.878 15.412 0 21.292 3.867 3.8653 9.307 5.1733 14.254 3.9533l1.572 1.572c.206.204.206.54 0 .7453l-5.123 5.1214h-2.189l-5.394-5.3934c.042-.1586.073-.3226.073-.4946 0-1.0427-.845-1.8867-1.886-1.8867-1.042 0-1.887.844-1.887 1.8867 0 1.0413.844 1.8853 1.887 1.8853.174 0 .338-.0307.498-.0733l5.382 5.38.001 1.4866c0 .4654.185.912.515 1.2414l1.388 1.388c.328.328.773.5133 1.238.516l1.493.004.717.716c.137.1373.36.1373.497 0l.819-.8174c.137-.1373.137-.36 0-.4973l-.729-.7293v-2.2014l5.116-5.116c.206-.2066.54-.2066.746 0l1.703 1.7027-3.757 3.7573c-.412.4107-.412 1.0787 0 1.4907l3.85 3.8507v201.0556c-2.585 1.591-4.315 4.437-4.315 7.696 0 4.992 4.048 9.039 9.04 9.039s9.039-4.047 9.039-9.039c0-3.259-1.73-6.105-4.315-7.696v-201.0557l3.851-3.8506c.412-.412.412-1.0787-.002-1.4907l-3.756-3.7573 1.703-1.7027c.207-.2067.54-.2067.747 0l6.41 6.408c.33.3293.775.5147 1.24.5147.74.0013 1.78.0026 1.796.0026 2.962 0 5.324-2.5693 4.979-5.6-.253-2.2466-2.061-4.0906-4.304-4.384-2.369-.3093-4.469 1.0387-5.304 3.0454l-2.403-2.4014c-.205-.2066-.205-.54 0-.7466z" fill="#fddd04"/></g></svg>
