<svg width="428" height="38" viewBox="0 0 428 38" fill="none" xmlns="http://www.w3.org/2000/svg">
    <g>
        <path fill-rule="evenodd" clip-rule="evenodd"
              d="M136.064 37.8004H120.945L139.844 0.00454073H158.74L177.637 37.8004H162.52L158.8 30.241H143.616L147.395 22.6816H155.08L149.385 11.1051L136.064 37.8004ZM101.354 15.0072H79.3709L75.5908 22.5665H101.436C99.9032 27.0191 95.6637 30.241 90.7095 30.241H64.2523L60.4725 37.8004H98.2679C108.663 37.8004 117.165 29.2962 117.165 18.9025C117.165 8.50867 108.661 0.00454073 98.2679 0.00454073C86.9293 0.00454073 75.5908 0.00454073 64.2523 0.00454073L60.4725 7.56387C70.5507 7.56387 80.6299 7.56387 90.7095 7.56387C95.5793 7.56387 99.7574 10.6744 101.354 15.0072ZM18.898 30.241L23.622 22.6816H34.0152C38.1913 22.6816 41.5752 19.2968 41.5752 15.1223C41.5752 10.9477 38.1913 7.56387 34.0152 7.56387H15.1184V37.8004H-0.000396729V0.00454073C13.858 0.00454073 27.7157 0.00454073 41.5752 0.00454073C49.8903 0.00454073 56.6939 6.80814 56.6939 15.1223C56.6939 23.4373 49.8892 30.241 41.5752 30.241H18.898Z"
              fill="#FFFFFF"/>
        <path fill-rule="evenodd" clip-rule="evenodd"
              d="M366.615 12.0989L368.504 9.07547H372.661C374.331 9.07547 375.684 7.72134 375.684 6.0516C375.684 4.38174 374.331 3.02814 372.661 3.02814H365.103V15.1224H359.056V0.00467043C364.599 0.00467043 370.141 0.00467043 375.684 0.00467043C379.012 0.00467043 381.732 2.726 381.732 6.0516C381.732 9.3776 379.012 12.0989 375.684 12.0989H366.615ZM296.037 6.00627H287.244L285.732 9.02974H296.069C295.459 10.8109 293.761 12.0989 291.78 12.0989H281.196L279.684 15.1224H294.803C298.96 15.1224 302.361 11.7213 302.361 7.564C302.361 3.40627 298.96 0.00467043 294.803 0.00467043C290.268 0.00467043 285.732 0.00467043 281.196 0.00467043L279.684 3.02814C283.716 3.02814 287.748 3.02814 291.78 3.02814C293.728 3.02814 295.399 4.2724 296.037 6.00627ZM338.923 9.12187H347.716L349.229 6.09787H338.891C339.504 4.31667 341.199 3.02814 343.18 3.02814H353.764L355.276 0.00467043H340.157C336 0.00467043 332.599 3.40627 332.599 7.564C332.599 11.7208 336 15.1224 340.157 15.1224C344.692 15.1224 349.229 15.1224 353.764 15.1224L355.276 12.0989C351.243 12.0989 347.213 12.0989 343.18 12.0989C341.233 12.0989 339.563 10.8552 338.923 9.12187ZM415.747 0.00467043C422.011 0.00467043 427.087 3.38907 427.087 7.564C427.087 11.7385 422.011 15.1224 415.747 15.1224C409.485 15.1224 404.409 11.7385 404.409 7.564C404.409 3.38907 409.485 0.00467043 415.747 0.00467043ZM415.747 3.02814C412.825 3.02814 410.457 5.0588 410.457 7.564C410.457 10.0688 412.825 12.0989 415.747 12.0989C418.671 12.0989 421.039 10.0688 421.039 7.564C421.039 5.0588 418.671 3.02814 415.747 3.02814ZM216.945 0.00467043H222.992V15.1224H216.945V6.05214L211.655 12.0989L206.363 6.0516V15.1224H200.315V0.00467043H206.363L211.655 6.0516L216.945 0.00467043ZM269.857 0.00467043H275.905V15.1224H269.857V9.07547H259.276V15.1224H253.229V0.00467043H259.276V6.0516H269.857V0.00467043ZM322.772 0.00467043H328.819V15.1224H322.772V9.07547H312.188V15.1224H306.141V0.00467043H312.188V6.0516H322.772V0.00467043ZM385.512 15.1224H391.559V3.02814H402.899L404.409 0.00467043C398.111 0.00467043 391.811 0.00467043 385.512 0.00467043V15.1224ZM207.873 34.776L209.764 31.7526H213.921C215.591 31.7526 216.945 30.399 216.945 28.7292C216.945 27.0589 215.591 25.7057 213.921 25.7057H206.361V37.8005H200.315V22.6817C205.857 22.6817 211.403 22.6817 216.945 22.6817C220.272 22.6817 222.992 25.4031 222.992 28.7292C222.992 32.0552 220.271 34.776 216.945 34.776H207.873ZM300.847 25.7057L302.357 22.6817H287.24C283.083 22.6817 279.68 26.0833 279.68 30.2411C279.68 34.3979 283.083 37.8005 287.24 37.8005C291.776 37.8005 296.311 37.8005 300.847 37.8005L302.357 34.776C298.327 34.776 294.295 34.776 290.264 34.776C287.769 34.776 285.728 32.7354 285.728 30.2411C285.728 27.7464 287.769 25.7057 290.264 25.7057H300.847ZM274.389 25.7057L275.901 22.6817H260.784C256.625 22.6817 253.224 26.0833 253.224 30.2411C253.224 34.3979 256.625 37.8005 260.784 37.8005C265.319 37.8005 269.853 37.8005 274.389 37.8005L275.901 34.776C271.869 34.776 267.839 34.776 263.807 34.776C261.312 34.776 259.271 32.7354 259.271 30.2411C259.271 27.7464 261.312 25.7057 263.807 25.7057H274.389ZM238.111 22.6817C244.372 22.6817 249.449 26.0656 249.449 30.2411C249.449 34.4156 244.372 37.8005 238.111 37.8005C231.848 37.8005 226.772 34.4156 226.772 30.2411C226.772 26.0656 231.848 22.6817 238.111 22.6817ZM238.111 25.7057C235.188 25.7057 232.819 27.7359 232.819 30.2411C232.819 32.7458 235.188 34.776 238.111 34.776C241.032 34.776 243.401 32.7458 243.401 30.2411C243.401 27.7359 241.032 25.7057 238.111 25.7057ZM322.767 22.6817H328.815V37.8005H322.767V27.2177L312.184 37.8005H306.137V22.6817H312.184V33.2646L322.767 22.6817ZM349.224 22.6817H355.271V37.8005H349.224V27.2177L338.641 37.8005H332.593V22.6817H338.641V33.2646L349.224 22.6817ZM243.401 0.00467043H249.449V15.1224H243.401V4.54014L232.819 15.1224H226.772V0.00467043H232.819V10.5875L243.401 0.00467043Z"
              fill="#FFFFFF"/>
    </g>
</svg>
