<svg width="190" height="60" viewBox="0 0 190 60" fill="none" xmlns="http://www.w3.org/2000/svg">
  <path fill-rule="evenodd" clip-rule="evenodd"
        d="M182.026 49.1605H184.741V55.9473H182.026V51.1967L177.276 55.9473H174.562V49.1605H177.276V53.9111L182.026 49.1605Z"
        fill="#ffffff"/>
  <path fill-rule="evenodd" clip-rule="evenodd"
        d="M169.907 49.1605H172.621V55.9473H169.907V51.1967L165.156 55.9473H162.441V49.1605H165.156V53.9111L169.907 49.1605Z"
        fill="#ffffff"/>
  <path fill-rule="evenodd" clip-rule="evenodd"
        d="M160.272 50.518L160.95 49.1605H154.164C152.297 49.1605 150.77 50.6875 150.77 52.5539C150.77 54.4199 152.297 55.9473 154.164 55.9473H160.272L160.95 54.5896C159.14 54.5896 157.33 54.5896 155.521 54.5896C154.401 54.5896 153.485 53.6736 153.485 52.5539C153.485 51.434 154.401 50.518 155.521 50.518H160.272Z"
        fill="#ffffff"/>
  <path fill-rule="evenodd" clip-rule="evenodd"
        d="M148.151 50.518L148.83 49.1605H142.044C140.177 49.1605 138.65 50.6875 138.65 52.5539C138.65 54.4199 140.177 55.9473 142.044 55.9473H148.151L148.83 54.5896C147.02 54.5896 145.21 54.5896 143.4 54.5896C142.281 54.5896 141.364 53.6736 141.364 52.5539C141.364 51.434 142.281 50.518 143.4 50.518H148.151Z"
        fill="#ffffff"/>
  <path fill-rule="evenodd" clip-rule="evenodd"
        d="M136.71 52.6072C136.71 50.7331 134.431 49.2139 131.619 49.2139C128.808 49.2139 126.53 50.7331 126.53 52.6072C126.53 54.4812 128.808 56.0002 131.619 56.0002C134.431 56.0002 136.71 54.4812 136.71 52.6072ZM129.223 52.6178C129.223 51.4932 130.286 50.5816 131.598 50.5816C132.91 50.5816 133.973 51.4932 133.973 52.6178C133.973 53.7422 132.91 54.6535 131.598 54.6535C130.286 54.6535 129.223 53.7422 129.223 52.6178Z"
        fill="#ffffff"/>
  <path fill-rule="evenodd" clip-rule="evenodd"
        d="M118.251 54.59L119.1 53.2328H120.966C121.715 53.2328 122.323 52.625 122.323 51.8754C122.323 51.1258 121.715 50.5182 120.966 50.5182H117.573V55.9473H114.858V49.161H122.323C123.817 49.161 125.038 50.3826 125.038 51.8754C125.038 53.3684 123.817 54.59 122.323 54.59H118.251Z"
        fill="#ffffff"/>
  <path fill-rule="evenodd" clip-rule="evenodd"
        d="M106.755 52.6068C106.755 50.7324 104.476 49.2134 101.665 49.2134C98.8535 49.2134 96.575 50.7324 96.575 52.6068C96.575 54.4807 98.8535 56.0001 101.665 56.0001C104.476 56.0001 106.755 54.4807 106.755 52.6068ZM99.2683 52.5644C99.2683 51.4398 100.332 50.5285 101.644 50.5285C102.955 50.5285 104.019 51.4398 104.019 52.5644C104.019 53.6887 102.955 54.6001 101.644 54.6001C100.332 54.6001 99.2683 53.6887 99.2683 52.5644Z"
        fill="#ffffff"/>
  <path fill-rule="evenodd" clip-rule="evenodd"
        d="M88.0459 55.9468H90.7602V50.5177H95.8507L96.5288 49.1605C93.7014 49.1605 90.8733 49.1605 88.0459 49.1605V55.9468Z"
        fill="#ffffff"/>
  <path fill-rule="evenodd" clip-rule="evenodd"
        d="M79.7676 54.5891L80.6163 53.2319H82.4825C83.2318 53.2319 83.84 52.6242 83.84 51.8747C83.84 51.1249 83.2318 50.5175 82.4825 50.5175H79.0888V55.9468H76.3745V49.16H83.84C85.3333 49.16 86.5543 50.3816 86.5543 51.8747C86.5543 53.3677 85.3327 54.5891 83.84 54.5891H79.7676Z"
        fill="#ffffff"/>
  <path fill-rule="evenodd" clip-rule="evenodd"
        d="M67.0932 53.2532H71.0405L71.7198 51.8957H67.0788C67.3542 51.0961 68.1149 50.5177 69.0043 50.5177H73.7554L74.4342 49.1605H67.6475C65.7812 49.1605 64.2544 50.6874 64.2544 52.5538C64.2544 54.4198 65.7812 55.9468 67.6475 55.9468H73.7554L74.4342 54.5896C72.6236 54.5896 70.8149 54.5896 69.0043 54.5896C68.1305 54.5896 67.3805 54.0312 67.0932 53.2532V53.2532Z"
        fill="#ffffff"/>
  <path fill-rule="evenodd" clip-rule="evenodd"
        d="M60.0473 49.1605H62.7622V55.9468H60.0473V53.2323H55.2973V55.9468H52.583V49.1605H55.2973V51.8749H60.0473V49.1605Z"
        fill="#ffffff"/>
  <path fill-rule="evenodd" clip-rule="evenodd"
        d="M48.2526 51.8546H44.3053L43.6265 53.2118H48.2669C47.9928 54.0114 47.2309 54.5896 46.3415 54.5896H41.5904L40.9116 55.9468H47.6983C49.5645 55.9468 51.0914 54.4201 51.0914 52.5538C51.0914 50.6874 49.5645 49.1605 47.6983 49.1605C45.6627 49.1605 43.6265 49.1605 41.5904 49.1605L40.9116 50.5177H46.3415C47.2159 50.5177 47.9659 51.0763 48.2526 51.8546V51.8546Z"
        fill="#ffffff"/>
  <path fill-rule="evenodd" clip-rule="evenodd"
        d="M36.2569 49.1605H38.9713V55.9468H36.2569V53.2323H31.5058V55.9468H28.7915V49.1605H31.5058V51.8749H36.2569V49.1605Z"
        fill="#ffffff"/>
  <path fill-rule="evenodd" clip-rule="evenodd"
        d="M24.1362 49.1605H26.8512V55.9468H24.1362V51.1964L19.3857 55.9468H16.6714V49.1605H19.3857V53.9111L24.1362 49.1605Z"
        fill="#ffffff"/>
  <path fill-rule="evenodd" clip-rule="evenodd"
        d="M12.4654 49.1605H15.1798V55.9468H12.4654V51.8752L10.0905 54.5896L7.71492 51.8749V55.9468H5V49.1605H7.71492L10.0905 51.8749L12.4654 49.1605Z"
        fill="#ffffff"/>
  <path fill-rule="evenodd" clip-rule="evenodd"
        d="M142.887 43.082H127.571L146.716 4.79537H165.857L185 43.082H169.686L165.918 35.4245H150.537L154.365 27.7669H162.15L156.381 16.0401L142.887 43.082Z"
        fill="#ffffff"/>
  <path fill-rule="evenodd" clip-rule="evenodd"
        d="M107.191 19.9929H84.9229L81.0936 27.6504H107.275C105.722 32.1608 101.427 35.4245 96.4086 35.4245H69.6079L65.7791 43.082H104.065C114.595 43.082 123.208 34.4674 123.208 23.9388C123.208 13.4099 114.593 4.79537 104.065 4.79537C92.5794 4.79537 81.0936 4.79537 69.6079 4.79537L65.7791 12.4529H96.4086C101.342 12.4529 105.574 15.6038 107.191 19.9929V19.9929Z"
        fill="#ffffff"/>
  <path fill-rule="evenodd" clip-rule="evenodd"
        d="M24.1438 35.2184L28.9291 27.5609H39.4573C43.6877 27.5609 47.1155 24.1321 47.1155 19.9034C47.1155 15.6746 43.6877 12.2468 39.4573 12.2468H20.3151V42.876H5V4.58932H47.1155C55.5385 4.58932 62.4305 11.4813 62.4305 19.9034C62.4305 28.3264 55.5374 35.2184 47.1155 35.2184H24.1438Z"
        fill="#ffffff"/>
</svg>
